<?xml version="1.0" standalone="no"?>
<!DOCTYPE svg PUBLIC "-//W3C//DTD SVG 20010904//EN"
 "http://www.w3.org/TR/2001/REC-SVG-20010904/DTD/svg10.dtd">
<svg version="1.0" xmlns="http://www.w3.org/2000/svg"
 width="300.000000pt" height="300.000000pt" viewBox="0 0 300.000000 300.000000"
 preserveAspectRatio="xMidYMid meet">
<metadata>
Created by potrace 1.10, written by Peter Selinger 2001-2011
</metadata>
<g transform="translate(0.000000,300.000000) scale(0.100000,-0.100000)"
fill="#000000" stroke="none">
<path d="M865 2894 c-377 -31 -645 -97 -728 -181 -47 -47 -48 -79 -5 -122 79
-77 273 -134 593 -173 134 -16 610 -16 755 0 149 17 336 55 429 87 162 55 228
132 169 196 -72 77 -261 137 -549 174 -119 16 -554 28 -664 19z m642 -59 c278
-32 476 -91 532 -159 63 -75 -169 -169 -529 -212 -201 -25 -619 -25 -820 0
-356 43 -586 134 -532 211 56 81 372 155 757 179 113 7 464 -4 592 -19z"/>
<path d="M100 2235 l0 -257 31 -29 c212 -198 1155 -263 1679 -115 152 42 268
100 284 141 9 24 7 517 -1 513 -154 -79 -266 -114 -467 -147 -399 -66 -888
-51 -1241 38 -90 23 -177 57 -277 109 -5 2 -8 -112 -8 -253z m126 151 c320
-130 978 -165 1469 -77 86 16 216 51 279 77 33 13 65 24 73 24 10 0 13 -39 13
-192 0 -106 -3 -203 -6 -215 -17 -61 -220 -136 -484 -178 -522 -83 -1289 5
-1417 163 -19 23 -18 422 0 422 8 0 40 -11 73 -24z"/>
<path d="M100 1585 l0 -257 37 -34 c92 -85 374 -157 712 -184 74 -5 138 -10
142 -10 4 0 9 46 11 103 2 86 6 107 25 133 46 65 39 64 582 64 l491 0 0 221
c0 121 -3 219 -7 217 -154 -79 -266 -114 -467 -147 -399 -66 -888 -51 -1241
38 -90 23 -177 57 -277 109 -5 2 -8 -112 -8 -253z m127 151 c300 -122 931
-163 1388 -90 130 21 283 59 358 90 33 13 66 24 74 24 10 0 13 -33 13 -154 0
-131 -2 -155 -16 -160 -9 -3 -220 -6 -470 -6 -388 0 -460 -2 -492 -15 -80 -34
-113 -88 -121 -195 l-6 -75 -106 1 c-259 4 -625 97 -691 175 -16 19 -18 46
-18 225 0 163 3 204 13 204 8 0 41 -11 74 -24z"/>
<path d="M1116 1284 c-14 -14 -16 -80 -16 -584 0 -504 2 -570 16 -584 14 -14
108 -16 884 -16 776 0 870 2 884 16 14 14 16 80 16 584 0 504 -2 570 -16 584
-14 14 -108 16 -884 16 -776 0 -870 -2 -884 -16z m1732 -36 c17 -17 17 -1079
0 -1096 -17 -17 -1679 -17 -1696 0 -17 17 -17 1079 0 1096 17 17 1679 17 1696
0z"/>
<path d="M1421 1076 c-86 -31 -161 -136 -161 -226 0 -57 31 -124 78 -172 34
-36 35 -38 13 -38 -36 0 -91 -61 -91 -101 0 -50 42 -130 89 -170 121 -104 298
-63 367 85 43 92 23 189 -54 269 -34 35 -35 37 -13 37 13 0 38 15 57 34 42 42
44 79 10 152 -53 114 -182 171 -295 130z m167 -47 c73 -36 125 -128 108 -193
-12 -47 -81 -45 -92 2 -16 75 -50 112 -103 112 -52 0 -101 -48 -101 -100 0
-60 42 -93 129 -103 58 -7 118 -50 148 -106 88 -167 -93 -353 -262 -271 -76
37 -128 127 -111 194 12 47 81 45 92 -2 16 -75 50 -112 103 -112 52 0 101 48
101 100 0 60 -42 93 -129 103 -58 7 -118 50 -149 107 -19 36 -23 56 -20 103
10 142 157 228 286 166z m-50 -141 c5 -7 19 -35 30 -61 l21 -48 -47 7 c-57 8
-78 18 -92 45 -25 45 56 97 88 57z m-16 -290 c44 -22 43 -74 -3 -98 -23 -13
-66 9 -75 38 -3 9 -12 32 -20 50 l-14 33 47 -7 c27 -3 56 -11 65 -16z"/>
<path d="M1921 1076 c-53 -19 -111 -74 -137 -130 -22 -48 -24 -62 -24 -246 0
-184 2 -198 24 -246 28 -61 92 -118 149 -132 23 -6 88 -10 145 -9 93 2 105 4
128 26 30 29 38 59 25 94 -7 18 -7 36 -1 53 6 14 10 112 10 217 0 181 -2 195
-24 242 -13 28 -36 62 -52 77 -65 60 -165 83 -243 54z m191 -62 c23 -16 52
-49 65 -73 22 -42 23 -55 23 -233 0 -144 -3 -197 -15 -224 -13 -32 -13 -37 0
-51 18 -17 20 -54 3 -71 -16 -16 -54 -15 -71 3 -13 13 -19 13 -47 -1 -80 -40
-200 6 -247 96 -23 44 -24 50 -21 252 l3 206 30 43 c65 92 188 116 277 53z"/>
<path d="M1951 936 c-45 -25 -50 -49 -51 -234 0 -189 7 -218 55 -240 14 -7 38
-12 52 -12 25 0 26 1 8 20 -40 45 20 105 65 65 20 -18 20 -16 20 158 0 115 -4
185 -12 202 -22 48 -88 68 -137 41z m93 -58 c13 -18 16 -51 16 -150 0 -122 -1
-128 -22 -139 -13 -6 -35 -23 -50 -36 -14 -14 -31 -22 -37 -19 -15 10 -15 307
1 341 15 34 70 35 92 3z"/>
<path d="M2294 1056 l-34 -34 0 -322 0 -322 34 -34 34 -34 172 0 172 0 34 34
c42 42 43 66 5 108 l-29 33 -119 5 -118 5 -5 268 -5 269 -33 29 c-42 38 -66
37 -108 -5z m90 -22 c14 -13 16 -55 16 -300 l0 -284 134 0 c109 0 138 -3 150
-16 20 -20 20 -48 0 -68 -23 -24 -345 -24 -368 0 -14 13 -16 58 -16 334 0 276
2 321 16 334 8 9 24 16 34 16 10 0 26 -7 34 -16z"/>
<path d="M100 963 c0 -257 -1 -253 75 -297 133 -79 412 -140 733 -161 l92 -6
0 251 0 250 -27 0 c-58 0 -272 21 -373 36 -194 28 -340 74 -492 152 -5 2 -8
-99 -8 -225z m125 122 c130 -52 365 -96 645 -122 l85 -8 0 -200 0 -200 -106 1
c-259 4 -625 97 -691 175 -16 19 -18 44 -18 200 0 130 3 179 12 179 6 0 39
-11 73 -25z"/>
</g>
</svg>
